<?xml version="1.0" encoding="utf-8"?>
<!-- Generator: Adobe Illustrator 23.0.1, SVG Export Plug-In . SVG Version: 6.00 Build 0)  -->
<svg version="1.1" id="Layer_1" xmlns="http://www.w3.org/2000/svg" xmlns:xlink="http://www.w3.org/1999/xlink" x="0px" y="0px"
	 viewBox="0 0 511.9 511.9" style="enable-background:new 0 0 511.9 511.9;" xml:space="preserve">
<style type="text/css">
	.st0{fill:#4F58C3;}
	.st1{fill:#353537;}
</style>
<g>
	<path class="st0" d="M-32.67,244.91c0-0.52,0.18-1.03,0.51-2.85c41.83,36.8,83.51,72.15,132.21,99.67c0-7.69,0.27-14.04-0.04-20.36
		c-1.74-35.06-1.94-69.91,7.69-104.19c24.66-87.85,111.46-116.1,181.99-88.38c22.7,8.92,43.17,21.54,61.76,37.19
		c6.05,5.09,12.4,8.24,20.51,8.46c19.53,0.53,39.04,1.55,58.56,2.41c4.84,0.21,10.73-0.35,12.85,4.88
		c2.15,5.29-1.57,9.81-5.15,13.67c-18.31,19.67-36.46,40-55.27,58.64c-22.84,20.94-24.88,45.72-18.74,72.98
		c5.83,25.84,22.58,44.62,42.19,61.21c29.39,24.87,55.17,52.97,76.38,85.18c14.08,21.37,25.55,44.07,34.92,67.87
		c1.96,4.98,2.51,7.35-4.58,7.34c-106.96-0.21-438.99-0.19-545.96-0.01"/>
	<path class="st1" d="M213.14,193.11c0.1-18.61,12.86-31.83,33.81-35.06c14.58-2.25,30.95,8.48,35.33,22.82
		c1.23,4.03,1.34,7.62-1.93,10.4c-3.52,3-7.51,2.43-11.42,0.41c-4.23-2.19-6.85-6.11-10.05-9.38c-5.23-5.36-11.23-4.79-17.22-2.2
		c-6.13,2.65-8.84,7.72-8.1,14.41c1.11,10.17-1.73,14.7-9.63,15.04c-7.01,0.31-10.55-4.28-10.78-14
		C213.13,194.74,213.14,193.93,213.14,193.11z"/>
</g>
</svg>
