<?xml version="1.0" encoding="UTF-8" standalone="no"?>
<!-- Generator: Adobe Illustrator 23.0.1, SVG Export Plug-In . SVG Version: 6.00 Build 0)  -->

<svg
   version="1.1"
   id="Layer_1"
   x="0px"
   y="0px"
   viewBox="0 0 511.9 511.9"
   style="enable-background:new 0 0 511.9 511.9;"
   xml:space="preserve"
   sodipodi:docname="seeker_logo_source_mono.svg"
   inkscape:version="1.3.2 (091e20e, 2023-11-25, custom)"
   xmlns:inkscape="http://www.inkscape.org/namespaces/inkscape"
   xmlns:sodipodi="http://sodipodi.sourceforge.net/DTD/sodipodi-0.dtd"
   xmlns="http://www.w3.org/2000/svg"
   xmlns:svg="http://www.w3.org/2000/svg"><defs
   id="defs2" /><sodipodi:namedview
   id="namedview2"
   pagecolor="#ffffff"
   bordercolor="#000000"
   borderopacity="0.25"
   inkscape:showpageshadow="2"
   inkscape:pageopacity="0.0"
   inkscape:pagecheckerboard="0"
   inkscape:deskcolor="#d1d1d1"
   inkscape:zoom="1.7767142"
   inkscape:cx="164.34832"
   inkscape:cy="357.1199"
   inkscape:window-width="3840"
   inkscape:window-height="2054"
   inkscape:window-x="1609"
   inkscape:window-y="-11"
   inkscape:window-maximized="1"
   inkscape:current-layer="Layer_1" />
<style
   type="text/css"
   id="style1">
	.st0{fill:#4F58C3;}
	.st1{fill:#353537;}
</style>
<g
   id="g2">
	<path
   id="path1"
   class="st0"
   d="M 234.9668 118.56055 C 179.64357 118.92945 126.1942 151.29225 107.69922 217.17969 C 98.069228 251.45965 98.269767 286.30918 100.00977 321.36914 C 100.31977 327.68913 100.05078 334.04048 100.05078 341.73047 C 51.35083 314.2105 9.6698019 278.86051 -32.160156 242.06055 C -32.490156 243.88055 -32.669922 244.39016 -32.669922 244.91016 L -32.839844 548.61914 C 74.130049 548.43914 406.15925 548.42086 513.11914 548.63086 C 520.20913 548.64086 519.65922 546.26906 517.69922 541.28906 C 508.32923 517.48909 496.85928 494.7899 482.7793 473.41992 C 461.56932 441.20995 435.79036 413.11021 406.40039 388.24023 C 386.79041 371.65025 370.04093 352.86927 364.21094 327.0293 C 358.07094 299.76932 360.10924 274.99076 382.94922 254.05078 C 401.7592 235.4108 419.91072 215.08014 438.2207 195.41016 C 441.8007 191.55016 445.51914 187.03023 443.36914 181.74023 C 441.24914 176.51024 435.35953 177.06937 430.51953 176.85938 C 410.99955 175.99938 391.49092 174.97922 371.96094 174.44922 C 363.85095 174.22922 357.49921 171.08023 351.44922 165.99023 C 332.85924 150.34025 312.38943 137.72077 289.68945 128.80078 C 272.05697 121.87079 253.40787 118.43758 234.9668 118.56055 z M 251.08594 157.75195 C 264.49345 157.84384 278.30993 167.87353 282.2793 180.86914 C 283.5093 184.89914 283.61961 188.48953 280.34961 191.26953 C 276.82961 194.26953 272.83968 193.69969 268.92969 191.67969 C 264.69969 189.48969 262.08086 185.57078 258.88086 182.30078 C 253.65086 176.94079 247.65015 177.50961 241.66016 180.09961 C 235.53016 182.74961 232.82055 187.81977 233.56055 194.50977 C 234.67055 204.67976 231.82968 209.21078 223.92969 209.55078 C 216.91969 209.86078 213.38039 205.27077 213.15039 195.55078 C 213.13039 194.74078 213.14062 193.92937 213.14062 193.10938 C 213.24062 174.49939 225.99924 161.28078 246.94922 158.05078 C 248.31609 157.83984 249.69895 157.74245 251.08594 157.75195 z " />
	
</g>
</svg>
